<svg class="diagram-root" style="background: #f5f6f6" xmlns="http://www.w3.org/2000/svg" xmlns:xlink="http://www.w3.org/1999/xlink"><style>.diagram-root { font-family: "Helvetica Neue", sans-serif; font-size: 12px; } .t { overflow: visible; } .t-bg { y: 40; fill: #fff;   } .th { fill: #005aa0;   } .tht { fill: #fff; font-size: 14px;  } .tf { fill: #323c46; overflow: visible; } .tf.pk { fill: #005aa0; font-weight: bold; } .tf.fk { font-weight: bold; } .ty { fill: #adb1b5; font-weight: normal; text-anchor: end; } .r { fill: transparent; stroke: #c3c3c3; stroke-width: 1; } .l { stroke: 1; } .i { fill: #c2c7ce; stroke: #c2c7ce; } .i.ix { fill: #afb3b6; stroke: #000; } .fa { fill: transparent; overflow: visible; } .fa .bg.hover { fill: #f7f7f7; } .c { cy: 12; r: 4; stroke: #d2d2dc; fill: #d2d2dc; } .hr { fill: transparent; stroke: #323c46; stroke-opacity: 0.035; stroke-width: 13; } .dc { stroke: #fa5a3c; fill: #fa5a3c; } .x { stroke: white; stroke-width: 1; } .hl .th { fill: #1b9bff; } .hl .tht {  } .fhl .bg { fill: #e7f4ff; } .fhls .bg {  } .r.hl { stroke: #1b9bff; } .dim { opacity: 0.25; }</style><g class="drawing-wrapper" transform="translate(2, 18) scale(1,1)"><g class="rs"><path d="M 36 443 m -1, 0 a 1,1 0 1,0 2,0 a 1,1 0 1,0 -2,0 M 36 443 m -0.5, 0 a 0.5,0.5 0 1,0 1,0 a 0.5,0.5 0 1,0 -1,0  M36 443 L36 443 24 443 M 36 449 m -1, 0 a 1,1 0 1,0 2,0 a 1,1 0 1,0 -2,0 M 36 449 m -0.5, 0 a 0.5,0.5 0 1,0 1,0 a 0.5,0.5 0 1,0 -1,0  M36 449 L36 449 29 443 36 437 M 36 437 m -1, 0 a 1,1 0 1,0 2,0 a 1,1 0 1,0 -2,0 M 36 437 m -0.5, 0 a 0.5,0.5 0 1,0 1,0 a 0.5,0.5 0 1,0 -1,0  M24 443 C -35.6 443, -32 137, 18 137 M 30 137 m -1, 0 a 1,1 0 1,0 2,0 a 1,1 0 1,0 -2,0 M 30 137 m -0.5, 0 a 0.5,0.5 0 1,0 1,0 a 0.5,0.5 0 1,0 -1,0  M30 137 L30 137 18 137 M24 143 L24 143 24 131" id="h1633742436" class="r"></path><path d="M 36 468 m -1, 0 a 1,1 0 1,0 2,0 a 1,1 0 1,0 -2,0 M 36 468 m -0.5, 0 a 0.5,0.5 0 1,0 1,0 a 0.5,0.5 0 1,0 -1,0  M36 468 L36 468 24 468 M 36 474 m -1, 0 a 1,1 0 1,0 2,0 a 1,1 0 1,0 -2,0 M 36 474 m -0.5, 0 a 0.5,0.5 0 1,0 1,0 a 0.5,0.5 0 1,0 -1,0  M36 474 L36 474 29 468 36 462 M 36 462 m -1, 0 a 1,1 0 1,0 2,0 a 1,1 0 1,0 -2,0 M 36 462 m -0.5, 0 a 0.5,0.5 0 1,0 1,0 a 0.5,0.5 0 1,0 -1,0  M24 468 C -35.6 468, -32 263, 18 263 M 30 263 m -1, 0 a 1,1 0 1,0 2,0 a 1,1 0 1,0 -2,0 M 30 263 m -0.5, 0 a 0.5,0.5 0 1,0 1,0 a 0.5,0.5 0 1,0 -1,0  M30 263 L30 263 18 263 M24 269 L24 269 24 257" id="h4257062627" class="r"></path><path d="M 30 263 m -1, 0 a 1,1 0 1,0 2,0 a 1,1 0 1,0 -2,0 M 30 263 m -0.5, 0 a 0.5,0.5 0 1,0 1,0 a 0.5,0.5 0 1,0 -1,0  M30 263 L30 263 18 263 M 30 269 m -1, 0 a 1,1 0 1,0 2,0 a 1,1 0 1,0 -2,0 M 30 269 m -0.5, 0 a 0.5,0.5 0 1,0 1,0 a 0.5,0.5 0 1,0 -1,0  M30 269 L30 269 23 263 30 257 M 30 257 m -1, 0 a 1,1 0 1,0 2,0 a 1,1 0 1,0 -2,0 M 30 257 m -0.5, 0 a 0.5,0.5 0 1,0 1,0 a 0.5,0.5 0 1,0 -1,0  M18 263 C -32 263, -172.40000000000003 233, 252 233 M 264 233 m -1, 0 a 1,1 0 1,0 2,0 a 1,1 0 1,0 -2,0 M 264 233 m -0.5, 0 a 0.5,0.5 0 1,0 1,0 a 0.5,0.5 0 1,0 -1,0  M264 233 L264 233 252 233 M258 239 L258 239 258 227" id="h2964638620" class="r"></path><path d="M 433.41 233 m -1, 0 a 1,1 0 1,0 2,0 a 1,1 0 1,0 -2,0 M 433.41 233 m -0.5, 0 a 0.5,0.5 0 1,0 1,0 a 0.5,0.5 0 1,0 -1,0  M433.41 233 L433.41 233 445.41 233 M 433.41 239 m -1, 0 a 1,1 0 1,0 2,0 a 1,1 0 1,0 -2,0 M 433.41 239 m -0.5, 0 a 0.5,0.5 0 1,0 1,0 a 0.5,0.5 0 1,0 -1,0  M433.41 239 L433.41 239 440.41 233 433.41 227 M 433.41 227 m -1, 0 a 1,1 0 1,0 2,0 a 1,1 0 1,0 -2,0 M 433.41 227 m -0.5, 0 a 0.5,0.5 0 1,0 1,0 a 0.5,0.5 0 1,0 -1,0  M445.41 233 Q 464.06 233, 482.71 168.5 T 520 104 M 532 104 m -1, 0 a 1,1 0 1,0 2,0 a 1,1 0 1,0 -2,0 M 532 104 m -0.5, 0 a 0.5,0.5 0 1,0 1,0 a 0.5,0.5 0 1,0 -1,0  M532 104 L532 104 520 104 M526 110 L526 110 526 98" id="h1342526811" class="r"></path><path d="M 687.38 104 m -1, 0 a 1,1 0 1,0 2,0 a 1,1 0 1,0 -2,0 M 687.38 104 m -0.5, 0 a 0.5,0.5 0 1,0 1,0 a 0.5,0.5 0 1,0 -1,0  M687.38 104 L687.38 104 699.38 104 M 687.38 110 m -1, 0 a 1,1 0 1,0 2,0 a 1,1 0 1,0 -2,0 M 687.38 110 m -0.5, 0 a 0.5,0.5 0 1,0 1,0 a 0.5,0.5 0 1,0 -1,0  M687.38 110 L687.38 110 694.38 104 687.38 98 M 687.38 98 m -1, 0 a 1,1 0 1,0 2,0 a 1,1 0 1,0 -2,0 M 687.38 98 m -0.5, 0 a 0.5,0.5 0 1,0 1,0 a 0.5,0.5 0 1,0 -1,0  M699.38 104 Q 803.79 104, 908.19 244 T 1117 384 M 1129 384 m -1, 0 a 1,1 0 1,0 2,0 a 1,1 0 1,0 -2,0 M 1129 384 m -0.5, 0 a 0.5,0.5 0 1,0 1,0 a 0.5,0.5 0 1,0 -1,0  M1129 384 L1129 384 1117 384 M1123 390 L1123 390 1123 378" id="h1590648187" class="r"></path><path d="M 709.38 310 m -1, 0 a 1,1 0 1,0 2,0 a 1,1 0 1,0 -2,0 M 709.38 310 m -0.5, 0 a 0.5,0.5 0 1,0 1,0 a 0.5,0.5 0 1,0 -1,0  M709.38 310 L709.38 310 721.38 310 M 709.38 316 m -1, 0 a 1,1 0 1,0 2,0 a 1,1 0 1,0 -2,0 M 709.38 316 m -0.5, 0 a 0.5,0.5 0 1,0 1,0 a 0.5,0.5 0 1,0 -1,0  M709.38 316 L709.38 316 716.38 310 709.38 304 M 709.38 304 m -1, 0 a 1,1 0 1,0 2,0 a 1,1 0 1,0 -2,0 M 709.38 304 m -0.5, 0 a 0.5,0.5 0 1,0 1,0 a 0.5,0.5 0 1,0 -1,0  M721.38 310 Q 740.04 310, 758.69 229 T 796 148 M 808 148 m -1, 0 a 1,1 0 1,0 2,0 a 1,1 0 1,0 -2,0 M 808 148 m -0.5, 0 a 0.5,0.5 0 1,0 1,0 a 0.5,0.5 0 1,0 -1,0  M808 148 L808 148 796 148 M802 154 L802 154 802 142" id="h3831561151" class="r"></path><path d="M 575 573 m -1, 0 a 1,1 0 1,0 2,0 a 1,1 0 1,0 -2,0 M 575 573 m -0.5, 0 a 0.5,0.5 0 1,0 1,0 a 0.5,0.5 0 1,0 -1,0  M575 573 L575 573 563 573 M 575 579 m -1, 0 a 1,1 0 1,0 2,0 a 1,1 0 1,0 -2,0 M 575 579 m -0.5, 0 a 0.5,0.5 0 1,0 1,0 a 0.5,0.5 0 1,0 -1,0  M575 579 L575 579 568 573 575 567 M 575 567 m -1, 0 a 1,1 0 1,0 2,0 a 1,1 0 1,0 -2,0 M 575 567 m -0.5, 0 a 0.5,0.5 0 1,0 1,0 a 0.5,0.5 0 1,0 -1,0  M563 573 C 479.4 573, 492 310, 542 310 M 554 310 m -1, 0 a 1,1 0 1,0 2,0 a 1,1 0 1,0 -2,0 M 554 310 m -0.5, 0 a 0.5,0.5 0 1,0 1,0 a 0.5,0.5 0 1,0 -1,0  M554 310 L554 310 542 310 M548 316 L548 316 548 304" id="h312662132" class="r"></path></g><g class="hrs"></g><g class="ts"><svg width="161.43" height="125" x="30" y="30" id="h1717429370" class="t"><rect height="40" width="161.43" class="th"></rect><text x="13" y="25" class="tht">PG_Job_Posting_Job</text><rect height="85" width="161.43" class="t-bg"></rect><text x="13" y="61" class="tf">ID<tspan x="148.43" class="ty">int</tspan></text><text x="13" y="86" class="tf">Job_Description<tspan x="148.43" class="ty">text</tspan></text><text x="13" y="111" class="tf fk">Job_Title<tspan x="148.43" class="ty">text</tspan></text></svg><svg width="173.09" height="225" x="36" y="361" id="h1985499397" class="t"><rect height="40" width="173.09" class="th"></rect><text x="13" y="25" class="tht">PG_Job_Posting_comp</text><rect height="185" width="173.09" class="t-bg"></rect><text x="13" y="61" class="tf">ID<tspan x="160.09" class="ty">int</tspan></text><text x="13" y="86" class="tf fk">Job_Title<tspan x="160.09" class="ty">text</tspan></text><text x="13" y="111" class="tf fk">Company_Name<tspan x="160.09" class="ty">text</tspan></text><text x="13" y="136" class="tf">Min<tspan x="160.09" class="ty">num</tspan></text><text x="13" y="161" class="tf">Max<tspan x="160.09" class="ty">num</tspan></text><text x="13" y="186" class="tf">City<tspan x="160.09" class="ty">text</tspan></text><text x="13" y="211" class="tf">State<tspan x="160.09" class="ty">text</tspan></text></svg><svg width="160.63" height="150" x="30" y="181" id="h3384154282" class="t"><rect height="40" width="160.63" class="th"></rect><text x="13" y="25" class="tht">PG_company_compe</text><rect height="110" width="160.63" class="t-bg"></rect><text x="13" y="61" class="tf">ID<tspan x="147.63" class="ty">int</tspan></text><text x="13" y="86" class="tf fk">company_Name<tspan x="147.63" class="ty">text</tspan></text><text x="13" y="111" class="tf">Competitors<tspan x="147.63" class="ty">text</tspan></text><text x="13" y="136" class="tf">Easy_Apply<tspan x="147.63" class="ty">text</tspan></text></svg><svg width="169.41" height="275" x="264" y="151" id="h3664581950" class="t"><rect height="40" width="169.41" class="th"></rect><text x="13" y="25" class="tht">PG_company_CSV</text><rect height="235" width="169.41" class="t-bg"></rect><text x="13" y="61" class="tf">ID<tspan x="156.41" class="ty">int</tspan></text><text x="13" y="86" class="tf fk">Company_Name<tspan x="156.41" class="ty">text</tspan></text><text x="13" y="111" class="tf">Headquarters<tspan x="156.41" class="ty">text</tspan></text><text x="13" y="136" class="tf">Size<tspan x="156.41" class="ty">text</tspan></text><text x="13" y="161" class="tf">Founded<tspan x="156.41" class="ty">int</tspan></text><text x="13" y="186" class="tf">Type_of_ownership<tspan x="156.41" class="ty">text</tspan></text><text x="13" y="211" class="tf">Industry<tspan x="156.41" class="ty">text</tspan></text><text x="13" y="236" class="tf">Sector<tspan x="156.41" class="ty">text</tspan></text><text x="13" y="261" class="tf">Revenue<tspan x="156.41" class="ty">text</tspan></text></svg><svg width="155.38" height="175" x="532" y="22" id="h4212974281" class="t"><rect height="40" width="155.38" class="th"></rect><text x="13" y="25" class="tht">PG_CompanyGit</text><rect height="135" width="155.38" class="t-bg"></rect><text x="13" y="61" class="tf">ID<tspan x="142.38" class="ty">int</tspan></text><text x="13" y="86" class="tf fk">Company_Name<tspan x="142.38" class="ty">text</tspan></text><text x="13" y="111" class="tf">Location<tspan x="142.38" class="ty">text</tspan></text><text x="13" y="136" class="tf">Company_URL<tspan x="142.38" class="ty">text</tspan></text><text x="13" y="161" class="tf">Company_logo<tspan x="142.38" class="ty">text</tspan></text></svg><svg width="155.38" height="225" x="554" y="228" id="h1650908126" class="t"><rect height="40" width="155.38" class="th"></rect><text x="13" y="25" class="tht">PG_ApplicationGit</text><rect height="185" width="155.38" class="t-bg"></rect><text x="13" y="61" class="tf">ID<tspan x="142.38" class="ty">int</tspan></text><text x="13" y="86" class="tf fk">Title<tspan x="142.38" class="ty">text</tspan></text><text x="13" y="111" class="tf">Description<tspan x="142.38" class="ty">text</tspan></text><text x="13" y="136" class="tf">Type<tspan x="142.38" class="ty">text</tspan></text><text x="13" y="161" class="tf">Company_Name<tspan x="142.38" class="ty">text</tspan></text><text x="13" y="186" class="tf">how_to_apply<tspan x="142.38" class="ty">text</tspan></text><text x="13" y="211" class="tf">Application_URL<tspan x="142.38" class="ty">text</tspan></text></svg><svg width="171.54" height="125" x="575" y="491" id="h3826862025" class="t"><rect height="40" width="171.54" class="th"></rect><text x="13" y="25" class="tht">PG_ApplicationGit_app</text><rect height="85" width="171.54" class="t-bg"></rect><text x="13" y="61" class="tf">ID<tspan x="158.54" class="ty">int</tspan></text><text x="13" y="86" class="tf fk">Title<tspan x="158.54" class="ty">text</tspan></text><text x="13" y="111" class="tf">Description<tspan x="158.54" class="ty">text</tspan></text></svg><svg width="170.98" height="275" x="808" y="66" id="h4042051501" class="t"><rect height="40" width="170.98" class="th"></rect><text x="13" y="25" class="tht">PG_ApplicationGitTime</text><rect height="235" width="170.98" class="t-bg"></rect><text x="13" y="61" class="tf">ID<tspan x="157.98" class="ty">int</tspan></text><text x="13" y="86" class="tf fk">Title<tspan x="157.98" class="ty">text</tspan></text><text x="13" y="111" class="tf">Company_Name<tspan x="157.98" class="ty">text</tspan></text><text x="13" y="136" class="tf">Weekday<tspan x="157.98" class="ty">text</tspan></text><text x="13" y="161" class="tf">Month<tspan x="157.98" class="ty">int</tspan></text><text x="13" y="186" class="tf">date<tspan x="157.98" class="ty">int</tspan></text><text x="13" y="211" class="tf">hour<tspan x="157.98" class="ty">char</tspan></text><text x="13" y="236" class="tf">zone<tspan x="157.98" class="ty">text</tspan></text><text x="13" y="261" class="tf">year<tspan x="157.98" class="ty">int</tspan></text></svg><svg width="155.38" height="150" x="1129" y="277" id="h3068385511" class="t"><rect height="40" width="155.38" class="th"></rect><text x="13" y="25" class="tht">PG_Greatest_DB</text><rect height="110" width="155.38" class="t-bg"></rect><text x="13" y="61" class="tf">ID<tspan x="142.38" class="ty">int</tspan></text><text x="13" y="86" class="tf">Company_rank<tspan x="142.38" class="ty">int</tspan></text><text x="13" y="111" class="tf fk">Company_Name<tspan x="142.38" class="ty">text</tspan></text><text x="13" y="136" class="tf">Company_Type<tspan x="142.38" class="ty">text</tspan></text></svg></g></g><text class="qdbd-link" x="10" y="20">www.quickdatabasediagrams.com</text></svg>